<svg xmlns:mydata="http://www.w3.org/2000/svg" xmlns="http://www.w3.org/2000/svg" xmlns:xlink="http://www.w3.org/1999/xlink" mydata:contrastcolor="9678D3" mydata:template="Contrast" mydata:presentation="2.5" mydata:layouttype="undefined" mydata:specialfontid="undefined" mydata:id1="074" mydata:id2="073" mydata:companyname="Cão Amigo" mydata:companytagline="" version="1.1" style="height: 793px;" viewBox="0 0 550 470"><g fill="#101820" fill-rule="none" stroke="none" stroke-width="1" stroke-linecap="butt" stroke-linejoin="miter" stroke-miterlimit="10" stroke-dasharray="" stroke-dashoffset="0" font-family="none" font-weight="none" font-size="none" text-anchor="none" style="mix-blend-mode: normal"><g data-paper-data="{&quot;isGlobalGroup&quot;:true,&quot;bounds&quot;:{&quot;x&quot;:146,&quot;y&quot;:106,&quot;width&quot;:258,&quot;height&quot;:258}}"><g data-paper-data="{&quot;isIcon&quot;:&quot;true&quot;,&quot;iconType&quot;:&quot;icon&quot;,&quot;rawIconId&quot;:&quot;3169965&quot;,&quot;selectedEffects&quot;:{&quot;container&quot;:&quot;circle_simple_filled&quot;,&quot;transformation&quot;:&quot;&quot;,&quot;pattern&quot;:&quot;&quot;},&quot;isDetailed&quot;:false,&quot;fillRule&quot;:&quot;nonzero&quot;,&quot;blockLetter&quot;:&quot;O&quot;,&quot;blockLetterId&quot;:0,&quot;relativeBoundsIconToContainer&quot;:{&quot;top&quot;:1.0764220163060185e-16,&quot;left&quot;:5.3821100815300926e-17},&quot;widthRatioIconToContainer&quot;:0.863092751054337,&quot;heightRatioIconToContainer&quot;:0.428893855129181,&quot;bounds&quot;:{&quot;x&quot;:203.02146804388317,&quot;y&quot;:163.02146804388317,&quot;width&quot;:143.95725332967217,&quot;height&quot;:143.95725332967228},&quot;iconStyle&quot;:&quot;standalone&quot;,&quot;suitableAsStandaloneIcon&quot;:true}" fill-rule="nonzero" id="element-id-89628"><path d="M203.02147,235.00009c0,-39.75269 32.22593,-71.97863 71.97863,-71.97863c39.75269,0 71.97863,32.22593 71.97863,71.97863c0,39.75269 -32.22593,71.97863 -71.97863,71.97863c-39.75269,0 -71.97863,-32.22593 -71.97863,-71.97863zM292.34715,225.13104l0.04157,0.02463c5.50881,3.35641 11.90445,4.98841 18.35551,4.67279c2.61584,-0.12779 5.23475,-0.57428 7.7459,-1.31177c4.16625,-1.22247 8.05383,-3.21783 11.61808,-5.72128c1.03001,-0.72363 5.27171,-4.23861 5.79826,-4.72975c0.40954,-0.38337 0.81601,-0.77443 1.21785,-1.17012c-2.09389,1.0762 -4.30174,1.94456 -6.58347,2.57735c-6.04922,1.67974 -12.57111,1.68898 -18.64343,0.02463c-3.22554,-0.88375 -6.30326,-2.22015 -9.18084,-4.00151c-0.46959,-0.28945 -3.93223,-2.95918 -3.93223,-2.95918c-0.16937,-0.15396 -4.10159,-3.1932 -4.88064,-3.67203l-0.04157,-0.02617c-5.50881,-3.35487 -11.90445,-4.98687 -18.35551,-4.67125c-2.61584,0.12779 -5.23475,0.57428 -7.7459,1.31177c-4.16779,1.22247 -8.05383,3.21783 -11.61808,5.72128c-1.03001,0.72363 -5.27171,4.23861 -5.79826,4.72975c-0.41108,0.38337 -0.81755,0.77443 -1.21939,1.17012c2.09543,-1.0762 4.30174,-1.94456 6.58502,-2.57735c6.04768,-1.67974 12.56957,-1.68898 18.64189,-0.02617c3.22554,0.88529 6.3048,2.22169 9.18084,4.00151c0.47113,0.29099 3.93223,2.96072 3.93223,2.96072c0.17091,0.15396 4.10159,3.1932 4.88218,3.67203zM274.22104,243.13244l0.04157,0.02617c5.50881,3.35641 11.90445,4.98688 18.35705,4.67279c2.61583,-0.12779 5.23321,-0.57428 7.74436,-1.31177c4.16779,-1.22401 8.05383,-3.21937 11.61962,-5.72128c1.03001,-0.72363 5.27171,-4.23861 5.79826,-4.73129c0.40954,-0.38337 0.81601,-0.77289 1.21785,-1.17012c-2.09543,1.0762 -4.30174,1.94456 -6.58502,2.57889c-6.04768,1.6782 -12.56957,1.68898 -18.64189,0.02463c-3.22554,-0.88375 -6.30326,-2.22015 -9.18084,-4.00151c-0.46959,-0.29099 -3.93223,-2.95918 -3.93223,-2.95918c-0.16937,-0.1555 -4.10159,-3.19474 -4.88064,-3.67203l-0.04157,-0.02617c-5.50881,-3.35641 -11.90445,-4.98688 -18.35705,-4.67279c-2.61583,0.12779 -5.23321,0.57428 -7.74436,1.31177c-4.16779,1.22401 -8.05383,3.21937 -11.61962,5.72128c-1.03001,0.72363 -5.27171,4.23861 -5.79826,4.73129c-0.40954,0.38337 -0.81601,0.77289 -1.21785,1.17012c2.09543,-1.0762 4.30174,-1.94456 6.58502,-2.57889c6.04768,-1.6782 12.56957,-1.68898 18.64189,-0.02463c3.22554,0.88375 6.30326,2.22015 9.18084,4.00151c0.46959,0.29099 3.93223,2.95918 3.93223,2.95918c0.16937,0.1555 4.10159,3.19474 4.88064,3.67203zM256.09647,261.13538l0.04157,0.02617c5.50881,3.35487 11.90445,4.98687 18.35551,4.67125c2.61584,-0.12779 5.23475,-0.57428 7.7459,-1.31177c4.16779,-1.22247 8.05383,-3.21783 11.61808,-5.72128c1.03001,-0.72363 5.27171,-4.23861 5.79826,-4.72975c0.41108,-0.38337 0.81755,-0.77443 1.21939,-1.17012c-2.09543,1.0762 -4.30174,1.94456 -6.58502,2.57735c-6.04768,1.67974 -12.56957,1.68898 -18.64189,0.02617c-3.22554,-0.88529 -6.3048,-2.22169 -9.18084,-4.00151c-0.47113,-0.29099 -3.93223,-2.96072 -3.93223,-2.96072c-0.17091,-0.15396 -4.10159,-3.1932 -4.88218,-3.67203l-0.04157,-0.02463c-5.50881,-3.35641 -11.90445,-4.98841 -18.35551,-4.67279c-2.61584,0.12779 -5.23475,0.57428 -7.7459,1.31177c-4.16625,1.22247 -8.05383,3.21783 -11.61808,5.72128c-1.03001,0.72363 -5.27171,4.23861 -5.79826,4.72975c-0.40954,0.38337 -0.81601,0.77443 -1.21785,1.17012c2.09389,-1.0762 4.30174,-1.94456 6.58347,-2.57735c6.04922,-1.67974 12.57111,-1.68898 18.64343,-0.02463c3.22554,0.88375 6.30326,2.22015 9.18084,4.00151c0.46959,0.28945 3.93223,2.95918 3.93223,2.95918c0.16937,0.15396 4.10159,3.1932 4.88064,3.67203z" data-paper-data="{&quot;isPathIcon&quot;:true}" id="element-id-4017"/></g><g data-paper-data="{&quot;isContainerElementsWrapper&quot;:true}" fill-rule="evenodd" id="element-id-2418"><path d="M183.78329,143.78329c-11.90078,11.90074 -21.11518,25.56812 -27.6432,41.00215c-6.76006,15.98266 -10.14008,32.72088 -10.14008,50.21466c0,17.49333 3.38003,34.23152 10.14008,50.21456c6.52808,15.43436 15.74248,29.1021 27.6432,41.00319c11.90077,11.89983 25.56815,21.11373 41.00215,27.64169c15.98285,6.76031 32.72107,10.14046 50.21466,10.14046c17.49396,0 34.23215,-3.38015 50.21456,-10.14046c15.43436,-6.52796 29.10178,-15.74185 41.00225,-27.64169c11.90047,-11.9011 21.11468,-25.56883 27.64263,-41.00319c6.76031,-15.98241 10.14046,-32.7206 10.14046,-50.21456c0,-17.49403 -3.38015,-34.23225 -10.14046,-50.21466c-6.52796,-15.43395 -15.74185,-29.10133 -27.64169,-41.00215c-11.9011,-11.90059 -25.56883,-21.11499 -41.00319,-27.6432c-15.98304,-6.76006 -32.72123,-10.14008 -50.21456,-10.14008c-17.49377,0 -34.23199,3.38003 -50.21466,10.14008c-15.43417,6.52815 -29.10156,15.74255 -41.00215,27.6432zM148.45239,235.00009c0,-17.16236 3.3155,-33.5821 9.9465,-49.25924c6.40389,-15.14046 15.44339,-28.54828 27.11852,-40.22346c11.67524,-11.67525 25.08305,-20.71475 40.22346,-27.11852c15.67713,-6.631 32.09688,-9.9465 49.25924,-9.9465c17.16185,0 33.58182,3.3155 49.2599,9.9465c15.14014,6.40376 28.54773,15.44327 40.22279,27.11852c11.67506,11.67537 20.71469,25.08319 27.11889,40.22346c6.63024,15.67751 9.94536,32.09726 9.94536,49.25924c0,17.16248 -3.31512,33.58245 -9.94536,49.2599c-6.4042,15.14014 -15.44384,28.54773 -27.11889,40.22279c-11.67506,11.67506 -25.08266,20.71469 -40.22279,27.11889c-15.67745,6.63024 -32.09742,9.94536 -49.2599,9.94536c-17.16248,0 -33.58223,-3.31512 -49.25924,-9.94536c-15.14069,-6.4042 -28.5485,-15.44384 -40.22346,-27.11889c-11.67506,-11.67506 -20.71456,-25.08266 -27.11852,-40.22279c-6.631,-15.67808 -9.9465,-32.09805 -9.9465,-49.2599z" data-paper-data="{&quot;isAdditionalOutlinePath&quot;:true}" id="element-id-57184"/><path d="M152.37645,235.00009c0,-67.72318 54.90046,-122.62364 122.62364,-122.62364c67.72336,0 122.62411,54.90046 122.62411,122.62364c0,67.72336 -54.90075,122.62411 -122.62411,122.62411c-67.72318,0 -122.62364,-54.90075 -122.62364,-122.62411zM280.92479,148.52791l-2.18484,0.07832l-2.01474,-4.33046l-9.91364,0.35535l-1.69955,4.46353l-2.21211,0.07927l8.24894,-21.62503zM304.63729,153.73322l1.87334,0.50293l5.52531,-20.58718l-12.56027,10.32372l-5.70402,-15.22556l-5.52512,20.58721l1.874,0.50294l3.89613,-14.51661l4.56591,11.97762l9.9501,-8.08168zM275.89396,142.44609l-4.56496,-9.87215l-3.81932,10.17266zM238.60713,149.71906c-0.1367,-1.38439 -0.56039,-2.7128 -1.27109,-3.98525c-0.70179,-1.2566 -1.60844,-2.31014 -2.71985,-3.16052c-1.11141,-0.85039 -2.31961,-1.45378 -3.6245,-1.81007c-1.30499,-0.35629 -2.65364,-0.46388 -4.04596,-0.32267c-1.39234,0.14118 -2.71678,0.56266 -3.97331,1.26446c-1.27251,0.71063 -2.32999,1.61946 -3.17246,2.72647c-0.84247,1.10696 -1.45422,2.30941 -1.83527,3.60736c-0.38111,1.29793 -0.50107,2.64305 -0.35989,4.03536c0.14118,1.39232 0.56266,2.71676 1.26446,3.97333c0.7106,1.27248 1.61942,2.32995 2.72647,3.17242c1.10696,0.84247 2.31512,1.44582 3.6245,1.81006c1.30944,0.36424 2.65412,0.47402 4.03402,0.32936c1.37991,-0.14467 2.70611,-0.57234 3.97862,-1.28302c1.25653,-0.7018 2.31225,-1.60443 3.16715,-2.7079c0.85484,-1.10346 1.47064,-2.30814 1.8472,-3.61403c0.37666,-1.30589 0.49665,-2.65101 0.35989,-4.03536zM317.6588,159.61546l-1.79473,-0.98963l9.89611,-17.94842l1.79473,0.98961zM233.38556,144.15274c0.90399,0.68455 1.64026,1.5358 2.2088,2.55382c0.57744,1.03384 0.9183,2.11115 1.02257,3.23194c0.10424,1.12078 0.00316,2.21016 -0.30326,3.26816c-0.30638,1.05799 -0.80408,2.03502 -1.49308,2.93107c-0.68901,0.89605 -1.54252,1.62836 -2.56045,2.1969c-1.01802,0.56854 -2.08908,0.91115 -3.21337,1.02781c-1.12429,0.11666 -2.21723,0.02799 -3.27872,-0.26602c-1.0615,-0.29401 -2.04205,-0.77932 -2.94165,-1.45591c-0.89954,-0.6766 -1.63802,-1.53184 -2.21543,-2.56573c-0.56857,-1.01798 -0.90721,-2.09133 -1.01594,-3.22006c-0.10866,-1.12873 -0.0138,-2.21987 0.2846,-3.2734c0.29846,-1.05354 0.79221,-2.02835 1.48124,-2.92442c0.68897,-0.89607 1.55041,-1.63281 2.58432,-2.21022c1.01793,-0.56854 2.08908,-0.91119 3.21337,-1.02787c1.12429,-0.11659 2.21723,-0.02794 3.27872,0.26604c1.0615,0.29404 2.04426,0.78334 2.94828,1.46789zM338.13482,175.88746l1.45757,1.32166l7.56249,-8.34081l-5.78954,-5.24998l-1.35907,1.4981l4.33292,3.92832l-3.67186,4.04889c-1.0721,-0.03779 -2.07223,-0.25003 -3.00037,-0.63673c-0.92815,-0.38666 -1.75685,-0.91043 -2.4861,-1.57131c-0.877,-0.79543 -1.54691,-1.70419 -2.00972,-2.72629c-0.46218,-1.0221 -0.72073,-2.07999 -0.77377,-3.1737c-0.05367,-1.0937 0.10292,-2.17512 0.46976,-3.24424c0.36652,-1.06912 0.9414,-2.03557 1.72465,-2.89934c0.78324,-0.86378 1.6896,-1.53039 2.71719,-1.99986c1.02854,-0.46948 2.08927,-0.73096 3.18316,-0.78445c1.09389,-0.05349 2.17167,0.10014 3.2343,0.46091c1.06263,0.36077 2.03245,0.93888 2.90945,1.73433c0.71505,0.6486 1.30035,1.40675 1.7559,2.27444c0.4546,0.86769 0.78798,1.87678 0.99918,3.02726l1.96521,-0.17349c-0.19984,-1.43483 -0.59382,-2.69568 -1.18196,-3.78256c-0.58846,-1.08688 -1.32119,-2.02805 -2.19819,-2.82351c-1.07968,-0.97902 -2.27869,-1.69102 -3.59704,-2.13602c-1.3174,-0.44501 -2.64616,-0.63478 -3.9844,-0.56932c-1.33792,0.06545 -2.64395,0.3873 -3.9181,0.96555c-1.27478,0.57825 -2.3955,1.40048 -3.36216,2.46671c-0.97929,1.07971 -1.69055,2.27857 -2.13568,3.59657c-0.44513,1.318 -0.6355,2.6461 -0.5692,3.98427c0.06535,1.33818 0.38357,2.64141 0.95466,3.90971c0.57141,1.26828 1.39727,2.39193 2.47758,3.37097c0.68759,0.62413 1.43863,1.13878 2.25123,1.54394c0.81355,0.40526 1.79378,0.73456 2.94071,0.988zM198.77031,154.40937c0.24583,0.84631 0.34744,1.54039 0.30481,2.08223c-0.04263,0.54183 -0.18028,0.98538 -0.41296,1.33065c-0.23268,0.34525 -0.52787,0.61101 -0.88556,0.79728c-0.3577,0.18626 -0.7287,0.34697 -1.113,0.48213c-0.3843,0.13516 -0.75256,0.26684 -1.10477,0.39503c-0.35221,0.12819 -0.636,0.30357 -0.85137,0.52615c-0.10135,0.10474 -0.16036,0.23777 -0.17703,0.3991c-0.01668,0.16133 -0.01065,0.33194 0.01808,0.51185c0.02873,0.17991 0.07033,0.3596 0.12482,0.53908c0.05449,0.17949 0.10201,0.32687 0.14256,0.44217l-1.61026,0.79953c-0.16601,-0.69302 -0.25631,-1.28743 -0.2709,-1.78323c-0.0146,-0.4958 0.07164,-0.93206 0.25871,-1.30878c0.18707,-0.37672 0.48447,-0.70372 0.8922,-0.98099c0.40773,-0.27727 0.95747,-0.53755 1.64922,-0.78085c0.23058,-0.0811 0.50276,-0.17898 0.81654,-0.29366c0.31378,-0.11467 0.55302,-0.25711 0.71771,-0.42732c0.10135,-0.10474 0.16353,-0.24105 0.18654,-0.40891c0.02301,-0.16788 0.01688,-0.34494 -0.01839,-0.53117c-0.03528,-0.18624 -0.07688,-0.36594 -0.12483,-0.53908c-0.04794,-0.17316 -0.09219,-0.31737 -0.13273,-0.43267zM199.2129,235.00009c0,-41.85614 33.93105,-75.78719 75.78719,-75.78719c41.85652,0 75.78686,33.93105 75.78686,75.78719c0,41.85652 -33.93035,75.78686 -75.78686,75.78686c-41.85614,0 -75.78719,-33.93035 -75.78719,-75.78686zM219.31544,168.58557l-1.52026,1.57107l-4.45415,-1.72406l-6.89819,7.1289l1.86962,4.39496l-1.53927,1.59073l-9.04717,-21.30339zM211.47356,167.69024l-10.134,-3.94986l4.29994,9.979zM364.35304,197.53503c-1.27478,0.70766 -2.60449,1.12808 -3.98913,1.26143c-1.38464,0.13335 -2.72951,0.01013 -4.03459,-0.36974c-1.30414,-0.37978 -2.50789,-0.99851 -3.60935,-1.85601c-1.10146,-0.85759 -2.0012,-1.91548 -2.70015,-3.17378c-0.70747,-1.27421 -1.13177,-2.60146 -1.27289,-3.98165c-0.14112,-1.38028 -0.02841,-2.72468 0.33906,-4.03317c0.36747,-1.30859 0.97361,-2.51527 1.81841,-3.62015c0.84575,-1.10497 1.90554,-2.01123 3.17937,-2.7188c1.25836,-0.6987 2.58397,-1.11693 3.97682,-1.2547c1.39222,-0.1378 2.73708,-0.01459 4.03459,0.36965c1.29656,0.38423 2.49747,0.99899 3.60272,1.84417c1.10494,0.84512 2.01098,1.90478 2.71814,3.17899c0.69895,1.2583 1.11756,2.58375 1.25489,3.97644c0.13827,1.39269 0.02747,2.74106 -0.33243,4.0451c-0.35895,1.30414 -0.96603,2.51082 -1.81841,3.62015c-0.85333,1.10932 -1.90933,2.01341 -3.16706,2.71208zM200.67709,184.97343c0.43813,1.53636 0.58114,2.98708 0.42903,4.35215c-0.15211,1.36513 -0.54628,2.64199 -1.18252,3.83059c-0.68783,1.28491 -1.57761,2.35853 -2.66936,3.22057c-1.09175,0.86213 -2.27878,1.48731 -3.5611,1.87542c-1.28232,0.38812 -2.61677,0.5262 -4.00334,0.41426c-1.38663,-0.11195 -2.7224,-0.51181 -4.00732,-1.19968c-1.269,-0.67916 -2.33845,-1.56686 -3.20864,-2.66283c-0.87018,-1.09606 -1.49933,-2.28523 -1.88745,-3.56758c-0.38812,-1.28229 -0.5262,-2.61674 -0.41426,-4.00334c0.11195,-1.3866 0.51184,-2.7224 1.19968,-4.00741c0.61902,-1.15639 1.45245,-2.18266 2.50031,-3.0786c1.04786,-0.89594 2.33252,-1.58763 3.85398,-2.07507l0.49703,1.90885c-1.36715,0.50808 -2.44162,1.11598 -3.22341,1.82371c-0.78179,0.70773 -1.40485,1.49526 -1.86917,2.3626c-0.55884,1.04407 -0.88439,2.12517 -0.97664,3.2433c-0.09225,1.11813 0.02027,2.20131 0.33745,3.24936c0.31727,1.04805 0.82832,2.01389 1.53324,2.89742c0.70489,0.88363 1.57131,1.60058 2.59928,2.15084c1.02797,0.55026 2.10509,0.87369 3.23127,0.9702c1.12619,0.09654 2.21331,-0.0138 3.26136,-0.33101c1.04805,-0.31727 2.01173,-0.82425 2.89103,-1.52112c0.87929,-0.69687 1.59838,-1.56733 2.15724,-2.6114c0.46429,-0.86734 0.76981,-1.81452 0.91659,-2.84155c0.14677,-1.02696 0.06105,-2.26622 -0.25718,-3.71779zM363.38417,195.79097c1.01907,-0.56598 1.87239,-1.30026 2.55903,-2.20255c0.68664,-0.90238 1.17818,-1.88395 1.47461,-2.94468c0.29739,-1.06083 0.38831,-2.15349 0.27466,-3.27806c-0.11365,-1.12457 -0.45365,-2.19648 -1.02001,-3.21593c-0.57488,-1.03526 -1.30982,-1.89844 -2.20387,-2.58962c-0.895,-0.69118 -1.8686,-1.18727 -2.92082,-1.48835c-1.05316,-0.30098 -2.14421,-0.39853 -3.27313,-0.29256c-1.12893,0.10598 -2.20292,0.44191 -3.22199,1.00798c-1.03548,0.57495 -1.8926,1.31137 -2.57134,2.20927c-0.67906,0.89793 -1.16681,1.87722 -1.46325,2.93805c-0.29644,1.06074 -0.38831,2.15349 -0.27371,3.27806c0.11365,1.12457 0.45365,2.19648 1.02001,3.21583c0.56541,1.01935 1.29562,1.87466 2.19061,2.56585c0.89405,0.69118 1.86955,1.19125 2.92745,1.50019c1.05695,0.30903 2.1461,0.41274 3.26745,0.31121c1.1204,-0.10153 2.19914,-0.43973 3.2343,-1.01471zM368.4615,274.74745c1.27478,0.70747 2.33457,1.61384 3.17937,2.71814c0.8448,1.10525 1.45188,2.31184 1.81935,3.62071c0.36747,1.30793 0.47828,2.65658 0.33243,4.04501c-0.14585,1.38843 -0.56825,2.71151 -1.2672,3.96924c-0.70747,1.27478 -1.61005,2.33646 -2.70678,3.186c-1.09673,0.84954 -2.29763,1.4642 -3.60272,1.84398c-1.30509,0.37978 -2.64995,0.5029 -4.03459,0.36936c-1.38464,-0.13259 -2.71435,-0.5531 -3.98818,-1.26057c-1.25836,-0.69895 -2.31405,-1.6031 -3.16706,-2.71246c-0.85333,-1.10904 -1.45946,-2.31563 -1.81935,-3.61977c-0.35895,-1.30414 -0.4726,-2.649 -0.33906,-4.03364c0.13354,-1.38464 0.55405,-2.71435 1.26152,-3.98818c0.69895,-1.25868 1.60247,-2.31373 2.71246,-3.16706c1.10904,-0.85333 2.31184,-1.47177 3.60935,-1.85629c1.29656,-0.38452 2.64143,-0.50764 4.03459,-0.36936c1.39222,0.13733 2.71814,0.55594 3.97587,1.25489zM179.75949,292.10093c1.05155,0.88363 2.33807,1.56932 3.85957,2.05707l0.46009,-1.92069c-1.38439,-0.53984 -2.46318,-1.15576 -3.23639,-1.84777c-0.7732,-0.69137 -1.39193,-1.47083 -1.8562,-2.33836c-0.55888,-1.04369 -0.88439,-2.12526 -0.97673,-3.24283c-0.09225,-1.11851 0.02027,-2.20198 0.33754,-3.24946c0.31718,-1.04843 0.82823,-2.01445 1.53314,-2.89809c0.70492,-0.88363 1.57131,-1.59963 2.59938,-2.15084c1.02797,-0.54994 2.10503,-0.87321 3.23118,-0.96982c1.12618,-0.0966 2.21334,0.01421 3.26139,0.33148c1.04805,0.31696 2.01173,0.82397 2.89103,1.52102c0.8793,0.69706 1.59839,1.56743 2.15725,2.61112c0.46428,0.86753 0.77411,1.8222 0.92948,2.86589c0.15537,1.04306 0.06535,2.27427 -0.27008,3.69364l1.86409,0.64497c0.43813,-1.53618 0.57498,-2.98901 0.41053,-4.3585c-0.16443,-1.36823 -0.55617,-2.63069 -1.17522,-3.7874c-0.68783,-1.2852 -1.57761,-2.35825 -2.66936,-3.22104c-1.09175,-0.86185 -2.27879,-1.48693 -3.56114,-1.87523c-1.28229,-0.38831 -2.62075,-0.52405 -4.01537,-0.40725c-1.39459,0.11554 -2.72638,0.51332 -3.99529,1.19238c-1.28501,0.68853 -2.35853,1.57785 -3.22066,2.66984c-0.86213,1.09199 -1.48721,2.27869 -1.87542,3.56105c-0.38812,1.28236 -0.5262,2.6168 -0.41426,4.00334c0.11195,1.38654 0.5119,2.72193 1.19968,4.00713c0.63625,1.18891 1.48017,2.22502 2.53175,3.10834zM367.49358,276.49104c-1.02001,-0.56636 -2.09401,-0.90163 -3.22294,-1.0077c-1.12893,-0.10607 -2.22187,-0.00474 -3.27882,0.30401c-1.0579,0.3097 -2.0334,0.80976 -2.92745,1.50019c-0.895,0.69137 -1.6252,1.54659 -2.19061,2.56661c-0.57488,1.03517 -0.91962,2.11485 -1.03327,3.23904c-0.1146,1.12514 -0.02084,2.21334 0.28034,3.2665c0.30117,1.05221 0.79461,2.03055 1.48124,2.93218c0.68759,0.90257 1.53996,1.63657 2.55998,2.20292c1.03517,0.57488 2.11295,0.91299 3.2343,1.01433c1.1204,0.10229 2.20955,-0.00189 3.26745,-0.31064c1.05695,-0.30875 2.03245,-0.80881 2.92745,-1.50019c0.89405,-0.69137 1.62425,-1.54659 2.19061,-2.56566c0.56541,-1.02001 0.90542,-2.09117 1.02001,-3.21631c0.11365,-1.12419 0.02273,-2.21713 -0.27466,-3.27787c-0.29644,-1.06074 -0.78419,-2.04003 -1.4623,-2.93786c-0.67906,-0.89784 -1.53618,-1.63467 -2.57134,-2.20955zM216.05244,298.86787c-0.85389,0.21783 -1.55095,0.29644 -2.09107,0.23582c-0.54012,-0.05967 -0.97891,-0.21215 -1.31636,-0.4565c-0.33742,-0.24372 -0.59332,-0.54742 -0.76771,-0.9111c-0.17439,-0.36368 -0.32283,-0.73968 -0.44532,-1.12798c-0.12246,-0.38831 -0.24189,-0.76146 -0.35847,-1.11756c-0.11649,-0.3561 -0.28252,-0.64497 -0.49788,-0.86753c-0.10134,-0.10513 -0.23232,-0.16858 -0.39304,-0.19036c-0.16072,-0.02178 -0.33139,-0.02178 -0.51218,0.00095c-0.1807,0.02273 -0.36169,0.05872 -0.54287,0.10702c-0.18118,0.04925 -0.33006,0.09187 -0.44662,0.12786l-0.74616,-1.63562c0.69811,-0.14301 1.29516,-0.21404 1.79115,-0.21215c0.49608,0.00189 0.92919,0.10229 1.29959,0.30212c0.37041,0.19889 0.6874,0.50669 0.95116,0.92341c0.26367,0.41672 0.50574,0.97455 0.72613,1.67445c0.07349,0.23298 0.16243,0.50859 0.2667,0.82586c0.10427,0.31727 0.23876,0.56068 0.40346,0.73115c0.10134,0.10513 0.23554,0.17142 0.40261,0.19984c0.16697,0.02841 0.34417,0.02841 0.53151,-0.00095c0.18724,-0.02936 0.36823,-0.0644 0.54287,-0.10702c0.17464,-0.04262 0.32021,-0.08145 0.4368,-0.11839zM201.2084,318.9357l-1.52027,-1.57122l1.86962,-4.39448l-6.89822,-7.12967l-4.45408,1.72465l-1.53927,-1.59111l21.58942,-8.34194zM355.05927,312.77868l1.45757,-1.32213l-7.56249,-8.341l-5.79049,5.25065l1.35812,1.49734l4.33292,-3.92757l3.67091,4.0488c-0.14206,1.06358 -0.45081,2.03813 -0.92625,2.92461c-0.47544,0.88553 -1.07779,1.6593 -1.8061,2.32036c-0.87795,0.79461 -1.84777,1.37328 -2.90945,1.73412c-1.06263,0.36084 -2.14042,0.51427 -3.2343,0.46028c-1.09389,-0.05304 -2.15462,-0.31443 -3.18316,-0.78419c-1.02854,-0.46976 -1.93395,-1.13556 -2.71719,-1.9993c-0.78324,-0.86374 -1.35812,-1.83072 -1.72465,-2.89998c-0.36684,-1.06895 -0.52374,-2.1502 -0.4707,-3.24377c0.05398,-1.09389 0.31159,-2.15178 0.77472,-3.17369c0.46218,-1.02191 1.13272,-1.93111 2.00972,-2.72666c0.71505,-0.64875 1.5267,-1.15734 2.43496,-1.52576c0.90826,-0.36747 1.94532,-0.60045 3.11023,-0.69895l0.01894,-1.97184c-1.44715,0.05777 -2.73992,0.32675 -3.87927,0.80597c-1.13935,0.48017 -2.14705,1.11756 -3.025,1.91312c-1.07968,0.97866 -1.90522,2.10222 -2.47663,3.37068c-0.57109,1.26815 -0.89026,2.57134 -0.95561,3.90958c-0.06535,1.33823 0.12786,2.66984 0.57867,3.99481c0.45081,1.32403 1.16018,2.5202 2.12716,3.58567c0.97834,1.07968 2.10253,1.90554 3.37068,2.47758c1.26815,0.57109 2.57134,0.88931 3.90958,0.95466c1.33823,0.0663 2.66605,-0.12407 3.9844,-0.5692c1.31835,-0.44513 2.51736,-1.15639 3.59704,-2.13568c0.68759,-0.62413 1.27383,-1.32119 1.7559,-2.09022c0.48301,-0.76998 0.90636,-1.71328 1.27004,-2.83084zM202.3611,311.12791l4.28094,-9.99935l-10.11497,3.97019zM232.31762,331.54237c1.10696,-0.84196 2.01578,-1.89986 2.72647,-3.1718c0.70179,-1.25678 1.12325,-2.58176 1.26446,-3.97398c0.14112,-1.39222 0.02121,-2.73708 -0.35989,-4.03554c-0.38111,-1.29751 -0.99681,-2.5022 -1.84729,-3.61408c-0.85039,-1.11093 -1.90383,-2.0173 -3.16043,-2.71909c-1.27251,-0.71126 -2.60089,-1.13461 -3.98525,-1.27099c-1.38436,-0.13733 -2.72903,-0.02747 -4.03402,0.32864c-1.30499,0.35705 -2.5131,0.96035 -3.6246,1.81083c-1.11141,0.84954 -2.01796,1.90365 -2.71975,3.16043c-0.71069,1.27194 -1.13442,2.6007 -1.27109,3.9844c-0.13676,1.38464 -0.01676,2.72951 0.3598,4.03554c0.37666,1.30603 0.98847,2.50883 1.83536,3.60746c0.84689,1.09957 1.90658,2.00404 3.17909,2.71435c1.2566,0.70179 2.57882,1.12798 3.96669,1.27667c1.38786,0.14964 2.73651,0.04167 4.04586,-0.32296c1.30944,-0.36368 2.51764,-0.96698 3.6246,-1.80988zM329.82413,332.44968l-1.79473,0.98971l-9.89611,-17.9492l1.79473,-0.98971zM234.31825,324.17688c-0.10863,1.12893 -0.44731,2.20292 -1.01585,3.2201c-0.57744,1.03422 -1.31588,1.88944 -2.21552,2.56661c-0.89954,0.67622 -1.88006,1.16113 -2.94156,1.45567c-1.0615,0.2936 -2.15443,0.38262 -3.27872,0.26613c-1.12429,-0.11649 -2.19544,-0.45934 -3.21337,-1.02854c-1.01802,-0.56825 -1.87144,-1.30035 -2.56045,-2.1963c-0.68901,-0.89594 -1.1867,-1.87334 -1.49308,-2.93123c-0.30648,-1.0579 -0.40753,-2.14705 -0.30326,-3.2684c0.10427,-1.1204 0.44513,-2.19819 1.02257,-3.23146c0.56854,-1.01812 1.3048,-1.86955 2.2088,-2.55429c0.90399,-0.68474 1.88281,-1.17628 2.93635,-1.47461c1.05354,-0.29833 2.1425,-0.38925 3.26679,-0.27276c1.12429,0.11744 2.2033,0.46407 3.23724,1.0418c1.01802,0.56825 1.87144,1.30035 2.56045,2.1963c0.68901,0.89594 1.1867,1.87334 1.49308,2.93123c0.30648,1.0579 0.40526,2.15178 0.29653,3.27976zM311.16841,340.60221l1.87334,-0.5029l-5.52436,-20.58778l-5.70431,15.22632l-12.56065,-10.3242l5.52474,20.58683l1.87429,-0.5029l-3.89584,-14.51601l9.94962,8.0815l4.56685,-11.97781zM280.02231,346.6522l-2.18484,-0.07766l-1.69945,-4.46362l-9.91373,-0.35516l-2.01464,4.33008l-2.21211,-0.07956l9.77583,-20.97893zM275.43983,340.22622l-3.84659,-10.17361l-4.53768,9.87338z" data-paper-data="{&quot;isBaseLogoContainer&quot;:true}" id="element-id-77790"/></g></g></g><g class="watermark-group" style="opacity:0.040000010281801224"/><rect data-element-id="element-id-2418" stroke-width="2" fill="transparent" class="invisible-element-box grouping-element" x="146" y="106" width="258" height="258" data-element-name="isContainerElementsWrapper"/><rect data-element-id="element-id-57184" stroke-width="2" fill="transparent" class="invisible-element-box individual-element" x="146" y="106" width="258" height="258"/><rect data-element-id="element-id-77790" stroke-width="2" fill="transparent" class="invisible-element-box individual-element" x="152" y="112" width="245" height="245"/><rect data-element-id="element-id-89628" stroke-width="2" fill="transparent" class="invisible-element-box grouping-element" x="203" y="163" width="30" height="30" data-element-name="isIcon"/><rect data-element-id="element-id-4017" stroke-width="2" fill="transparent" class="invisible-element-box individual-element" x="203" y="163" width="30" height="30"/></svg>